<?xml version="1.0" encoding="UTF-8"?>
<svg width="752pt" height="752pt" version="1.1" viewBox="0 0 752 752" xmlns="http://www.w3.org/2000/svg">
 <path d="m414.91 156.82c-10.008 0-19.785 1.0117-29.234 2.9414-9.4453 1.9297-18.559 4.7812-27.238 8.4531-8.6797 3.668-16.926 8.1562-24.645 13.367-7.7188 5.2109-14.906 11.145-21.469 17.703-4.9219 4.9219-9.4922 10.195-13.668 15.777v-15.055 0.003907c0.019531-1.3086-0.49219-2.5664-1.418-3.4883-0.92578-0.92578-2.1836-1.4336-3.4922-1.4141-2.668 0.042969-4.8008 2.2344-4.7617 4.9023v25.473c-0.3125 1.5898 0.19531 3.2305 1.3516 4.3711 1.1406 1.1836 2.8008 1.707 4.4141 1.3945h25.492c2.6719 0 4.8359-2.1641 4.8359-4.8359 0-2.668-2.1641-4.832-4.8359-4.832h-14.371c4.0469-5.4805 8.4883-10.652 13.297-15.461 6.1289-6.125 12.84-11.664 20.043-16.527s14.902-9.0547 23-12.477c8.0977-3.4219 16.594-6.082 25.406-7.8828s17.938-2.75 27.293-2.75 18.484 0.94922 27.297 2.75 17.309 4.457 25.406 7.8828c8.0977 3.4219 15.797 7.6133 23 12.477s13.914 10.402 20.043 16.527 11.672 12.836 16.539 20.035h0.003906c0.71094 1.0742 1.8242 1.8203 3.0898 2.0703s2.5781-0.015624 3.6484-0.73828c1.0703-0.72266 1.8047-1.8398 2.043-3.1094 0.24219-1.2656-0.035156-2.5742-0.76953-3.6367-5.2148-7.7148-11.148-14.898-17.711-21.457s-13.75-12.492-21.469-17.703c-7.7188-5.2109-15.969-9.6992-24.648-13.367-8.6797-3.668-17.793-6.5195-27.238-8.4531-9.4453-1.9297-19.223-2.9414-29.234-2.9414zm130.78 96.73c-0.75781 0.011719-1.5 0.21484-2.1758 0.55469 0 0-13.668 7.1758-27.344 19.484-13.676 12.309-27.965 30.094-27.965 51.969 0 19.094 14.773 34.953 33.223 34.953 6.2539-0.011719 12.184-1.9375 17.277-5.3047v-25.371l-18.418-9.0586c-2.8242-1.3398-4.5039-4.7188-3.8633-7.7734 0.64062-3.0547 3.5352-5.4922 6.6562-5.5898 1.1719-0.035156 2.3516 0.21484 3.3945 0.75781l12.234 6.0078v-7.3711l-11.316-5.5625c-2.8242-1.3438-4.5078-4.7305-3.8633-7.7891 0.64453-3.0586 3.5508-5.4844 6.6758-5.5742 1.1719-0.035156 2.3438 0.21484 3.3828 0.75781l5.1211 2.5156v-11.5c-0.035156-3.6758 3.2422-7.0703 6.9219-7.125 3.75-0.035156 7.1875 3.375 7.1328 7.125v11.523l5.1602-2.5352c0.97656-0.49609 2.082-0.76562 3.1836-0.76953h0.011719c3.1641-0.011719 6.1719 2.3945 6.8672 5.4805 0.69531 3.0859-0.98438 6.5391-3.8438 7.8906l-0.011719 0.011718-11.363 5.5859v7.3633l12.309-6.043c0.97266-0.48828 2.0625-0.74609 3.1523-0.74609h0.011719c3.1562 0 6.1523 2.4023 6.8477 5.4805 0.69531 3.0781-0.97656 6.5273-3.832 7.8828l-18.484 9.082v25.312c5.1016 3.3828 11.051 5.3281 17.328 5.3359 18.453 0 33.223-15.859 33.223-34.953 0-21.875-14.285-39.66-27.961-51.969s-27.348-19.484-27.348-19.484c-0.71094-0.38672-1.5039-0.56641-2.3125-0.55469zm-255.25 2.6719c-13.344 0-24.293 10.855-24.293 24.156 0 13.301 10.949 24.16 24.293 24.16s24.293-10.859 24.293-24.16c0-13.301-10.953-24.156-24.293-24.156zm255.23 18.691 0.003906 0.003907c-2.5625 0.039062-4.6094 2.1445-4.5742 4.707v15.359l-8.5859-4.2148v-0.003906c-0.69141-0.35156-1.4609-0.52344-2.2383-0.5-2.1445 0.0625-3.9688 1.5859-4.4062 3.6875-0.44141 2.0977 0.61328 4.2227 2.5508 5.1445l12.68 6.2266v12.68l-15.695-7.7109v0.003906c-0.69141-0.35156-1.4648-0.52344-2.2422-0.5-2.1406 0.066406-3.9609 1.5938-4.3984 3.6875-0.44141 2.0977 0.61328 4.2227 2.5508 5.1406l19.785 9.7227v38.371c-0.039063 1.2578 0.42969 2.4766 1.3047 3.3789s2.0781 1.4102 3.3359 1.4102c1.2578 0 2.4609-0.50781 3.3359-1.4102s1.3438-2.1211 1.3047-3.3789v-38.344l19.844-9.75c1.957-0.93359 3.0039-3.0938 2.5273-5.207-0.47656-2.1172-2.3555-3.6172-4.5234-3.6211-0.73047 0-1.4453 0.17188-2.0977 0.5l-15.75 7.7383v-12.68l12.734-6.2539v-0.003906c1.9688-0.92969 3.0273-3.0977 2.5469-5.2188-0.47656-2.1211-2.3672-3.625-4.543-3.6211-0.73047 0.003907-1.4492 0.17578-2.1016 0.50781l-8.6367 4.2422v-15.387h0.003906c0.015625-1.2539-0.47266-2.4609-1.3594-3.3477-0.88672-0.88672-2.0977-1.3789-3.3516-1.3594zm-145.77 2.1289c-13.551 0-24.375 11.586-24.379 25.441 0 15.66 10.285 27.613 19.91 35.531s19.234 12.23 19.234 12.23l0.003906 0.007812c1.2656 0.56641 2.7148 0.56641 3.9766 0 0 0 9.6094-4.3125 19.238-12.23 9.625-7.918 19.91-19.871 19.91-35.531 0-13.859-10.824-25.441-24.375-25.441-6.3555 0.007813-12.305 2.6562-16.75 7.0664-4.4453-4.4141-10.398-7.0586-16.754-7.0664zm-109.46 31.52c-33.219 0-60.449 25.957-60.449 58.102v4.832h120.89v-4.832c0-32.145-27.23-58.102-60.449-58.102zm223.83 86.945 0.007813 0.003907c-0.23828 0.011719-0.47656 0.042969-0.70703 0.089843h-25.645c-1.3008-0.027343-2.5586 0.46875-3.4883 1.3789-0.92969 0.90625-1.4531 2.1523-1.4531 3.4531 0 1.3008 0.52344 2.5469 1.4531 3.4531 0.92969 0.91016 2.1875 1.4062 3.4883 1.3789h14.305c-3.707 3.1289-7.5742 6.0703-11.605 8.7891-7.2031 4.8633-14.902 9.0547-23 12.48-8.0977 3.4219-16.594 6.0781-25.406 7.8789-8.8125 1.8008-17.941 2.75-27.297 2.75s-18.48-0.94922-27.293-2.75c-8.8125-1.8008-17.309-4.457-25.406-7.8789s-15.797-7.6133-23-12.48c-7.2031-4.8633-13.918-10.402-20.043-16.527h-0.007812c-0.91016-0.9375-2.1602-1.4648-3.4688-1.4648-1.9688 0-3.7422 1.1914-4.4805 3.0156-0.74219 1.8242-0.30078 3.9141 1.1133 5.2852 6.5625 6.5586 13.75 12.492 21.469 17.703 7.7188 5.2109 15.965 9.6992 24.645 13.367 8.6797 3.668 17.793 6.5195 27.238 8.4492 9.4453 1.9297 19.223 2.9453 29.234 2.9453 10.008 0 19.785-1.0117 29.234-2.9453 9.4453-1.9297 18.559-4.7812 27.238-8.4492 8.6797-3.668 16.93-8.1562 24.648-13.367 4.6953-3.1719 9.1914-6.6094 13.473-10.293v15.066h-0.003907c-0.027343 1.2969 0.47266 2.5508 1.3828 3.4805 0.91016 0.92578 2.1523 1.4492 3.4531 1.4492s2.5469-0.52344 3.457-1.4492c0.90625-0.92969 1.4062-2.1836 1.3789-3.4805v-25.477c0.36328-1.8516-0.38672-3.7422-1.918-4.8477-0.85938-0.65234-1.9102-1-2.9883-0.98438zm-249.12 46.695-51.09 29.504 43.59 75.582 15.797-9.1328c0.86719-0.82422 2.0508-1.3203 3.4883-1.207l0.003906 0.003906h0.035156c0.59375 0.023437 1.1797 0.15234 1.7266 0.38672l134.12 35.977s-1.2852 0.019532 4.6797 1.2188c5.2422 1.8828 11.199 1.543 16.457-1.4961l118.74-68.629c9.4961-5.4883 12.676-17.367 7.1914-26.879-2.7461-4.7578-7.0742-7.8906-11.922-9.1914-3.8125-1.0195-7.9141-0.89844-11.801 0.53125-0.03125 0.011718-0.058594 0.023437-0.089844 0.035156-0.49609 0.17969-0.98437 0.38672-1.4688 0.61328-0.089843 0.035157-0.21484 0.089844-0.30078 0.17969-0.125 0.089843-0.30078 0.125-0.42969 0.21484-0.25781 0.125-0.54297 0.30078-0.8125 0.44531v0.003906l-29.371 16.977-80.559 46.562c-0.125 0.089844-0.25781 0.125-0.38672 0.21484-0.125 0.089843-0.30078 0.125-0.43359 0.17969v-0.003906 0.007812c-0.125 0.035157-0.30078 0.089844-0.42969 0.125v0.003907c-0.011718 0.003906-0.023437 0.007812-0.035156 0.007812-0.125 0.035156-0.30078 0.035156-0.44141 0.089844-0.011719 0.003906-0.023438 0.003906-0.035156 0.003906-0.125 0.019531-0.25781 0.035156-0.42969 0.035156-0.015625 0.003906-0.035156 0.007813-0.035156 0.007813-0.089844 0.003906-0.17969 0-0.30078-0.003907-0.074218 0.003907-0.14453 0-0.21484 0-0.32422-0.03125-0.64062-0.089843-0.94922-0.17969l-27.352-7.3359c-0.011719-0.007813-0.023438-0.011719-0.035157-0.019532l-9.8828-2.6523c-0.035157-0.015624-0.125-0.019531-0.17969-0.035156l-68.301-18.324v0.003906c-1.2578-0.31641-2.3359-1.125-2.9922-2.2422-0.65625-1.1172-0.83594-2.4492-0.5-3.6992 0.33984-1.2539 1.1641-2.3164 2.2891-2.9531 1.1289-0.64062 2.4648-0.79687 3.7109-0.44141l0.34375 0.089844c0 0.003906 0.035157 0.007812 0.035157 0.007812l67.992 18.238c10.57 2.8008 21.16-3.3359 23.996-13.93 2.8398-10.613-3.3047-21.258-13.895-24.102zm250.88 18.121c-0.94141-0.019531-1.8945 0.035156-2.8398 0.125-2.5273 0.30078-5.043 1.1328-7.418 2.5039l-99.863 57.723 14.156 3.7969 105.87-61.188c-1.6367-1.0195-3.4023-1.8125-5.25-2.3125-1.5156-0.38672-3.0781-0.63672-4.6523-0.66797zm-324.67 2.6406c-0.25781 0.007812-0.50781 0.015625-0.75781 0.035156-1.3438 0.125-2.6562 0.54297-3.8633 1.2422l-12.504 7.2266c8.3945 14.555 16.789 29.109 25.184 43.664l0.003907 0.003907c0.66406 1.1133 0.85156 2.4414 0.52734 3.6953-0.32812 1.2539-1.1406 2.3242-2.2656 2.9688-1.1211 0.64844-2.457 0.81641-3.7031 0.47266-1.25-0.34375-2.3086-1.1758-2.9375-2.3086-8.3906-14.551-16.785-29.102-25.176-43.652l-12.258 7.082c-4.8477 2.8008-6.5078 9.3789-3.1914 15.129l52.238 90.578c3.3164 5.75 9.8164 7.5938 14.664 4.793l33.133-19.148c4.8477-2.8008 6.5117-9.375 3.1953-15.125l-1.5195-2.6328v-0.003906c-0.33594-0.41016-0.60156-0.87109-0.78906-1.3672l-47.625-82.582h-0.003907c-0.33984-0.41797-0.61328-0.88672-0.80078-1.3945l-1.5039-2.6094c-2.332-4.0391-6.2383-6.1523-10.039-6.0742zm11.047 62.598 0.007812 0.003906c1.3008-0.027344 2.5547 0.46875 3.4844 1.3789 0.92969 0.91016 1.457 2.1562 1.457 3.4531 0 1.3008-0.52734 2.5469-1.457 3.457-0.92969 0.91016-2.1836 1.4062-3.4844 1.3789-1.3008 0.027344-2.5586-0.46875-3.4883-1.3789-0.92969-0.91016-1.4531-2.1562-1.4531-3.457 0-1.2969 0.52344-2.543 1.4531-3.4531 0.92969-0.91016 2.1875-1.4062 3.4883-1.3789z"/>
</svg>
